<svg>
  <symbol id='star' width="13" height="12" viewBox="0 0 13 12" xmlns="http://www.w3.org/2000/svg">
    <path d="M12.7011 4.44304C12.6241 4.20856 12.4125 4.04276 12.1618 4.02005L8.75872 3.71655L7.41309 0.624682C7.36475 0.514025 7.28439 0.419732 7.18195 0.3535C7.07952 0.287268 6.95954 0.252012 6.83688 0.252106C6.58571 0.252106 6.35972 0.398787 6.2606 0.625699L4.91506 3.7171L1.51136 4.02053C1.38921 4.03124 1.27298 4.07702 1.17717 4.15216C1.08136 4.2273 1.01021 4.32846 0.972592 4.44304C0.93461 4.5576 0.93174 4.68059 0.96434 4.79675C0.99694 4.9129 1.06357 5.0171 1.15597 5.0964L3.7286 7.31059L2.96994 10.59C2.94271 10.7077 2.95133 10.8307 2.99472 10.9436C3.03811 11.0565 3.11436 11.1545 3.21398 11.2252C3.32023 11.3019 3.44872 11.3433 3.58064 11.3432C3.69211 11.3432 3.80307 11.314 3.90218 11.2555L6.83686 9.53287L9.77097 11.255C9.87605 11.317 9.99738 11.3472 10.1199 11.342C10.2423 11.3368 10.3605 11.2964 10.4598 11.2257C10.5594 11.155 10.6356 11.057 10.679 10.9441C10.7223 10.8311 10.7309 10.7082 10.7037 10.5905L9.94516 7.31111L12.5178 5.09683C12.6102 5.01744 12.6768 4.91316 12.7094 4.79693C12.742 4.6807 12.7391 4.55764 12.701 4.44301L12.7011 4.44304Z"/>
    <path d="M3.43332 11.5947C3.29531 11.5947 3.16083 11.5518 3.04916 11.4722C2.83598 11.321 2.73638 11.0603 2.7944 10.8083L3.58738 7.38019L0.898124 5.06511C0.80143 4.98226 0.731676 4.87334 0.697536 4.75189C0.663396 4.63044 0.666375 4.50182 0.706103 4.38202C0.745594 4.26222 0.820022 4.15643 0.920168 4.07776C1.02031 3.99908 1.14177 3.95097 1.2695 3.93939L4.82824 3.62228L6.23445 0.390749C6.33824 0.153322 6.57443 0 6.83692 0C7.09941 0 7.33563 0.153322 7.43937 0.390206L8.84558 3.62231L12.4038 3.93937C12.6657 3.96253 12.8866 4.13655 12.9677 4.38154C13.0489 4.627 12.9738 4.89527 12.7756 5.06466L10.0869 7.37917L10.8799 10.8073C10.938 11.0594 10.8383 11.32 10.6252 11.4712C10.4131 11.622 10.1301 11.6346 9.90562 11.5025L6.83692 9.70273L3.76871 11.5035C3.66743 11.5633 3.55147 11.5948 3.43332 11.5947ZM6.8369 8.92742C6.95352 8.92742 7.06898 8.95814 7.17281 9.01861L10.0685 10.7186L9.3201 7.48246C9.29384 7.36936 9.29927 7.25138 9.33581 7.14106C9.37234 7.03073 9.43863 6.93218 9.52762 6.85585L12.0669 4.66938L8.70739 4.36992C8.58925 4.3597 8.47619 4.31806 8.38035 4.24949C8.28451 4.18092 8.20953 4.088 8.16347 3.98073L6.8369 0.931158L5.50922 3.98118C5.41526 4.19948 5.20677 4.3482 4.96537 4.36944L1.60645 4.66888L4.14562 6.85528C4.32748 7.01111 4.40657 7.25158 4.35315 7.48246L3.60485 10.7186L6.50052 9.01859C6.60472 8.95812 6.72028 8.92742 6.8369 8.92742Z" fill="#E7E61A"/>
  </symbol>
</svg>